# xmcd
#
# Track frame offsets: 
#        150
#        31632
#        50572
#        77792
#        98037
#        139582
#        162967
#        180077
#        206347
#        223795
#
# Disc length: 3310 seconds
#
# Revision: 5
# Processed by: cddbd v1.5.2PL0 Copyright (c) Steve Scherf et al.
# Submitted via: ExactAudioCopy v0.99pb3
#
DISCID=780cec0a
DTITLE=Railroad Earth - The Black Bear Sessions
DYEAR=2001
DGENRE=Bluegrass
TTITLE0=Head
TTITLE1=Lordy Lordy
TTITLE2=Seven Story Mountain
TTITLE3=Chains
TTITLE4=Black Bear
TTITLE5=Colorado
TTITLE6=Real Love
TTITLE7=Stillwater Getaway
TTITLE8=Cold Water
TTITLE9=Railroad Earth
EXTD=
EXTT0=
EXTT1=
EXTT2=
EXTT3=
EXTT4=
EXTT5=
EXTT6=
EXTT7=
EXTT8=
EXTT9=
PLAYORDER=
